<svg xmlns="http://www.w3.org/2000/svg" width="748.878" height="467" viewBox="0 0 748.878 467">
  <g id="Group_4" data-name="Group 4" transform="translate(1 -28)">
    <g id="Group_3" data-name="Group 3" transform="translate(-348 -380)">
      <g id="Group_2" data-name="Group 2" transform="translate(354 380)">
        <g id="temp0" transform="translate(-6 28)">
          <g id="Group_1" data-name="Group 1" transform="translate(86.34 23.258)">
            <path id="Path_1" data-name="Path 1" d="M80,346.917H741.038M80,253.111H741.038M80,159.306H741.038M80,65.5H741.038" transform="translate(-80 28.306)" fill="none" stroke="#ccc" stroke-width="1" stroke-dasharray="3 3"/>
            <path id="Path_2" data-name="Path 2" d="M80,5H741.038M127.217,5V380.222M221.651,5V380.222M316.085,5V380.222" transform="translate(-80 -5)" fill="none" stroke="#ccc" stroke-width="1" stroke-dasharray="3 3"/>
            <path id="Path_3" data-name="Path 3" d="M410.519,5V380.222M504.953,5V380.222M599.387,5V380.222M693.821,5V380.222M80,5V380.222M741.038,5V380.222" transform="translate(-80 -5)" fill="none" stroke="#ccc" stroke-width="1" stroke-dasharray="3 3"/>
          </g>
          <path id="Path_4" data-name="Path 4" d="M80,247H741.038m-613.821,9.3V247" transform="translate(6.34 151.48)" fill="none" stroke="#666" stroke-width="1"/>
          <text id="Page_A_" data-name="Page A
" transform="translate(135 432)" fill="#666" font-size="25" font-family="HelveticaNeue, Helvetica Neue"><tspan x="-40.275" y="0">Page A</tspan><tspan font-size="274"><tspan x="0" y="30"></tspan></tspan></text>
          <path id="Path_5" data-name="Path 5" d="M185,256.3V247" transform="translate(42.991 151.48)" fill="none" stroke="#666" stroke-width="1"/>
          <text id="Page_B_" data-name="Page B
" transform="translate(228 432)" fill="#666" font-size="25" font-family="HelveticaNeue, Helvetica Neue"><tspan x="-40.737" y="0">Page B</tspan><tspan x="0" y="30"></tspan></text>
          <path id="Path_6" data-name="Path 6" d="M255,256.3V247" transform="translate(67.425 151.48)" fill="none" stroke="#666" stroke-width="1"/>
          <text id="Page_C_" data-name="Page C
" transform="translate(322 432)" fill="#666" font-size="25" font-family="HelveticaNeue, Helvetica Neue"><tspan x="-41.2" y="0">Page C</tspan><tspan font-size="274"><tspan x="0" y="30"></tspan></tspan></text>
          <path id="Path_7" data-name="Path 7" d="M325,256.3V247" transform="translate(91.859 151.48)" fill="none" stroke="#666" stroke-width="1"/>
          <text id="Page_D_" data-name="Page D
" transform="translate(416 432)" fill="#666" font-size="25" font-family="HelveticaNeue, Helvetica Neue"><tspan x="-40.975" y="0">Page D</tspan><tspan x="0" y="30"></tspan></text>
          <path id="Path_8" data-name="Path 8" d="M395,256.3V247" transform="translate(116.293 151.48)" fill="none" stroke="#666" stroke-width="1"/>
          <text id="Page_E_" data-name="Page E
" transform="translate(509 432)" fill="#666" font-size="25" font-family="HelveticaNeue, Helvetica Neue"><tspan x="-39.813" y="0">Page E</tspan><tspan font-size="274"><tspan x="0" y="30"></tspan></tspan></text>
          <path id="Path_9" data-name="Path 9" d="M465,256.3V247" transform="translate(140.727 151.48)" fill="none" stroke="#666" stroke-width="1"/>
          <text id="Page_F_" data-name="Page F
" transform="translate(609 432)" fill="#666" font-size="25" font-family="HelveticaNeue, Helvetica Neue"><tspan x="-39.35" y="0">Page F</tspan><tspan font-size="265"><tspan x="0" y="30"></tspan></tspan></text>
          <path id="Path_10" data-name="Path 10" d="M535,256.3V247" transform="translate(165.161 151.48)" fill="none" stroke="#666" stroke-width="1"/>
          <text id="Page_G_" data-name="Page G
" transform="translate(702 432)" fill="#666" font-size="25" font-family="HelveticaNeue, Helvetica Neue"><tspan x="-41.662" y="0">Page G</tspan><tspan x="0" y="30"></tspan></text>
          <path id="Path_11" data-name="Path 11" d="M82.094,5V380.222m-8.094,0h8.094" transform="translate(4.245 18.258)" fill="none" stroke="#666" stroke-width="1"/>
          <text id="_0_" data-name="0
" transform="translate(75 393)" fill="#666" font-size="25" font-family="HelveticaNeue, Helvetica Neue"><tspan x="-13.9" y="0">0</tspan><tspan font-size="252"><tspan x="0" y="30"></tspan></tspan></text>
          <path id="Path_12" data-name="Path 12" d="M74,186.5h8.094" transform="translate(4.245 118.174)" fill="none" stroke="#666" stroke-width="1"/>
          <text id="_2500_" data-name="2500
" transform="translate(69.189 298.215)" fill="#666" font-size="24" font-family="HelveticaNeue, Helvetica Neue"><tspan x="-53.376" y="0">2500</tspan><tspan font-size="183"><tspan x="0" y="29"></tspan></tspan></text>
          <path id="Path_13" data-name="Path 13" d="M74,126h8.094" transform="translate(4.245 84.869)" fill="none" stroke="#666" stroke-width="1"/>
          <text id="_5000_" data-name="5000
" transform="translate(72 206)" fill="#666" font-size="25" font-family="HelveticaNeue, Helvetica Neue"><tspan x="-55.6" y="0">5000</tspan><tspan font-size="123"><tspan x="0" y="30"></tspan></tspan></text>
          <path id="Path_14" data-name="Path 14" d="M74,65.5h8.094" transform="translate(4.245 51.563)" fill="none" stroke="#666" stroke-width="1"/>
          <text id="_7500_" data-name="7500
" transform="translate(69.189 110.604)" fill="#666" font-size="24" font-family="HelveticaNeue, Helvetica Neue"><tspan x="-53.376" y="0">7500</tspan><tspan font-size="56"><tspan x="0" y="29"></tspan></tspan></text>
          <path id="Path_15" data-name="Path 15" d="M74,5h8.094" transform="translate(4.245 18.258)" fill="none" stroke="#666" stroke-width="1"/>
          <text id="_10000" data-name="10000" transform="translate(69 24)" fill="#666" font-size="25" font-family="HelveticaNeue, Helvetica Neue"><tspan x="-69.5" y="0">10000</tspan></text>
          <path id="Path_16" data-name="Path 16" d="M500,5.5h94.434V379.172H500Z" transform="translate(152.944 18.533)" fill="#ccc"/>
          <path id="Path_17" data-name="Path 17" d="M87,287.5h35.076v90.053H87Zm94.434,37.6H216.51v52.457H181.434ZM275.868,9.84h35.076V377.558H275.868ZM370.3,230.92h35.076V377.558H370.3Zm94.434-33.469h35.076V377.558H464.736Zm94.434,37.522h35.076V377.558H559.17ZM653.6,216.212H688.68V377.558H653.6Z" transform="translate(8.783 20.922)" fill="#8884d8"/>
          <path id="Path_18" data-name="Path 18" d="M117,150.2h35.075V300.289H117Zm94.434,37.522H246.51V300.289H211.434Zm94.434,37.522h35.076v75.044H305.868ZM400.3,195.977h35.076V300.289H400.3Zm94.434,33.395h35.076v70.917H494.736Zm94.434-18.761h35.075v89.678H589.17ZM683.6,169.336H718.68V300.289H683.6Z" transform="translate(19.255 98.191)" fill="#82ca9d"/>
        </g>
      </g>
    </g>
  </g>
</svg>
