<svg xmlns="http://www.w3.org/2000/svg" width="723" height="411.501" viewBox="0 0 723 411.501">
  <g id="Group_6" data-name="Group 6" transform="translate(-232.754 -224.704)">
    <g id="temp0" transform="translate(234.214 224.507)">
      <path id="Path_1" data-name="Path 1" d="M80,247H693.809M80,254.959V247" transform="translate(-0.062 94.453)" fill="none" stroke="#666" stroke-width="1"/>
      <text id="Page_A_" data-name="Page A
" transform="translate(75.54 378.197)" fill="#666" font-size="21" font-family="HelveticaNeue, Helvetica Neue"><tspan x="-33.831" y="0">Page A</tspan><tspan x="0" y="25"></tspan></text>
      <path id="Path_2" data-name="Path 2" d="M161.667,254.959V247" transform="translate(20.573 94.453)" fill="none" stroke="#666" stroke-width="1"/>
      <text id="Page_B_" data-name="Page B
" transform="translate(174.901 378.698)" fill="#666" font-size="21" font-family="HelveticaNeue, Helvetica Neue"><tspan x="-34.22" y="0">Page B</tspan><tspan x="0" y="25"></tspan></text>
      <path id="Path_3" data-name="Path 3" d="M243.333,254.959V247" transform="translate(41.207 94.453)" fill="none" stroke="#666" stroke-width="1"/>
      <text id="Page_C_" data-name="Page C
" transform="translate(277.949 379.698)" fill="#666" font-size="22" font-family="HelveticaNeue, Helvetica Neue"><tspan x="-36.256" y="0">Page C</tspan><tspan x="0" y="27"></tspan></text>
      <path id="Path_4" data-name="Path 4" d="M325,254.959V247" transform="translate(61.842 94.453)" fill="none" stroke="#666" stroke-width="1"/>
      <text id="Page_D_" data-name="Page D
" transform="translate(377.54 378.197)" fill="#666" font-size="21" font-family="HelveticaNeue, Helvetica Neue"><tspan x="-34.419" y="0">Page D</tspan><tspan font-size="244"><tspan x="0" y="25"></tspan></tspan></text>
      <path id="Path_5" data-name="Path 5" d="M406.667,254.959V247" transform="translate(82.477 94.453)" fill="none" stroke="#666" stroke-width="1"/>
      <text id="Page_E_" data-name="Page E
" transform="translate(483.311 378.698)" fill="#666" font-size="21" font-family="HelveticaNeue, Helvetica Neue"><tspan x="-33.443" y="0">Page E</tspan><tspan font-size="244"><tspan x="0" y="25"></tspan></tspan></text>
      <path id="Path_6" data-name="Path 6" d="M488.333,254.959V247" transform="translate(103.112 94.453)" fill="none" stroke="#666" stroke-width="1"/>
      <text id="Page_F_" data-name="Page F
" transform="translate(586.865 378.698)" fill="#666" font-size="21" font-family="HelveticaNeue, Helvetica Neue"><tspan x="-33.054" y="0">Page F</tspan><tspan font-size="244"><tspan x="0" y="25"></tspan></tspan></text>
      <path id="Path_7" data-name="Path 7" d="M570,254.959V247" transform="translate(123.747 94.453)" fill="none" stroke="#666" stroke-width="1"/>
      <text id="Page_G_" data-name="Page G
" transform="translate(686.54 378.197)" fill="#666" font-size="21" font-family="HelveticaNeue, Helvetica Neue"><tspan x="-34.997" y="0">Page G</tspan><tspan x="0" y="25"></tspan></text>
      <path id="Path_8" data-name="Path 8" d="M81.516,5V326.029m-7.516,0h7.516" transform="translate(-1.578 15.424)" fill="none" stroke="#666" stroke-width="1"/>
      <text id="_0_" data-name="0
" transform="translate(67.54 337.197)" fill="#666" font-size="22" font-family="HelveticaNeue, Helvetica Neue"><tspan x="-12.232" y="0">0</tspan><tspan font-size="231"><tspan x="0" y="27"></tspan></tspan></text>
      <path id="Path_9" data-name="Path 9" d="M74,186.5h7.516" transform="translate(-1.578 74.696)" fill="none" stroke="#666" stroke-width="1"/>
      <text id="_2500_" data-name="2500
" transform="translate(61.799 255.991)" fill="#666" font-size="21" font-family="HelveticaNeue, Helvetica Neue"><tspan x="-46.704" y="0">2500</tspan><tspan font-size="169"><tspan x="0" y="25"></tspan></tspan></text>
      <path id="Path_10" data-name="Path 10" d="M74,126h7.516" transform="translate(-1.578 54.938)" fill="none" stroke="#666" stroke-width="1"/>
      <text id="_5000_" data-name="5000
" transform="translate(61.54 176.197)" fill="#666" font-size="21" font-family="HelveticaNeue, Helvetica Neue"><tspan x="-46.704" y="0">5000</tspan><tspan font-size="110"><tspan x="0" y="25"></tspan></tspan></text>
      <path id="Path_11" data-name="Path 11" d="M74,65.5h7.516" transform="translate(-1.578 35.181)" fill="none" stroke="#666" stroke-width="1"/>
      <text id="_7500_" data-name="7500
" transform="translate(61.799 95.476)" fill="#666" font-size="21" font-family="HelveticaNeue, Helvetica Neue"><tspan x="-46.704" y="0">7500</tspan><tspan font-size="51"><tspan x="0" y="25"></tspan></tspan></text>
      <path id="Path_12" data-name="Path 12" d="M74,5h7.516" transform="translate(-1.578 15.424)" fill="none" stroke="#666" stroke-width="1"/>
      <text id="_10000" data-name="10000" transform="translate(57.54 20.197)" fill="#666" font-size="21" font-family="HelveticaNeue, Helvetica Neue"><tspan x="-58.38" y="0">10000</tspan></text>
      <g id="Group_2" data-name="Group 2" transform="translate(79.938 20.424)">
        <g id="Group_1" data-name="Group 1" transform="translate(0 0)">
          <path id="Path_13" data-name="Path 13" d="M80,306.272H693.809M80,226.014H693.809M80,145.757H693.809M80,65.5H693.809" transform="translate(-80 14.757)" fill="none" stroke="#ccc" stroke-width="1" stroke-dasharray="3 3"/>
          <path id="Path_14" data-name="Path 14" d="M80,5H693.809M80,5V326.029M182.3,5V326.029M284.6,5V326.029" transform="translate(-80 -5)" fill="none" stroke="#ccc" stroke-width="1" stroke-dasharray="3 3"/>
          <path id="Path_15" data-name="Path 15" d="M325,5V326.029M427.3,5V326.029M529.6,5V326.029M631.9,5V326.029" transform="translate(-18.095 -5)" fill="none" stroke="#ccc" stroke-width="1" stroke-dasharray="3 3"/>
        </g>
        <path id="Path_16" data-name="Path 16" d="M80,247.4c34.1,16.083,68.2,32.167,102.3,32.167S250.5,9.84,284.6,9.84s68.2,189.15,102.3,189.15,68.2-28.635,102.3-28.635,68.2,32.1,102.3,32.1,68.2-8.012,102.3-16.051" transform="translate(-80 -3.419)" fill="none" stroke="#8884d8" stroke-width="1" stroke-dasharray="757.889 0"/>
      </g>
      <g id="Group_3" data-name="Group 3" transform="translate(76.18 22.865)">
        <ellipse id="Ellipse_1" data-name="Ellipse 1" cx="3.758" cy="3.98" rx="3.758" ry="3.98" transform="translate(0 237.561)" fill="#fff" stroke="#8884d8" stroke-width="1"/>
        <ellipse id="Ellipse_2" data-name="Ellipse 2" cx="3.758" cy="3.98" rx="3.758" ry="3.98" transform="translate(102.302 269.728)" fill="#fff" stroke="#8884d8" stroke-width="1"/>
        <ellipse id="Ellipse_3" data-name="Ellipse 3" cx="3.758" cy="3.98" rx="3.758" ry="3.98" transform="translate(204.603)" fill="#fff" stroke="#8884d8" stroke-width="1"/>
        <ellipse id="Ellipse_4" data-name="Ellipse 4" cx="3.758" cy="3.98" rx="3.758" ry="3.98" transform="translate(306.904 189.15)" fill="#fff" stroke="#8884d8" stroke-width="1"/>
        <ellipse id="Ellipse_5" data-name="Ellipse 5" cx="3.758" cy="3.98" rx="3.758" ry="3.98" transform="translate(409.206 160.514)" fill="#fff" stroke="#8884d8" stroke-width="1"/>
        <ellipse id="Ellipse_6" data-name="Ellipse 6" cx="3.758" cy="3.98" rx="3.758" ry="3.98" transform="translate(511.507 192.617)" fill="#fff" stroke="#8884d8" stroke-width="1"/>
        <ellipse id="Ellipse_7" data-name="Ellipse 7" cx="3.758" cy="3.98" rx="3.758" ry="3.98" transform="translate(613.809 176.566)" fill="#fff" stroke="#8884d8" stroke-width="1"/>
      </g>
      <g id="Group_5" data-name="Group 5" transform="translate(76.18 209.062)">
        <path id="Path_17" data-name="Path 17" d="M80,150.2l102.3,32.1c34.1,10.7,68.2,32.1,102.3,32.1s68.2-25.04,102.3-25.04,68.2,28.572,102.3,28.572,68.2-7.491,102.3-16.051,68.2-21.937,102.3-35.313" transform="translate(-76.242 -146.22)" fill="none" stroke="#82ca9d" stroke-width="1" stroke-dasharray="511.501 0"/>
        <g id="Group_4" data-name="Group 4">
          <ellipse id="Ellipse_8" data-name="Ellipse 8" cx="3.758" cy="3.98" rx="3.758" ry="3.98" fill="#fff" stroke="#82ca9d" stroke-width="1"/>
          <ellipse id="Ellipse_9" data-name="Ellipse 9" cx="3.758" cy="3.98" rx="3.758" ry="3.98" transform="translate(102.302 32.103)" fill="#fff" stroke="#82ca9d" stroke-width="1"/>
          <ellipse id="Ellipse_10" data-name="Ellipse 10" cx="3.758" cy="3.98" rx="3.758" ry="3.98" transform="translate(204.603 64.206)" fill="#fff" stroke="#82ca9d" stroke-width="1"/>
          <ellipse id="Ellipse_11" data-name="Ellipse 11" cx="3.758" cy="3.98" rx="3.758" ry="3.98" transform="translate(306.904 39.166)" fill="#fff" stroke="#82ca9d" stroke-width="1"/>
          <ellipse id="Ellipse_12" data-name="Ellipse 12" cx="3.758" cy="3.98" rx="3.758" ry="3.98" transform="translate(409.206 67.737)" fill="#fff" stroke="#82ca9d" stroke-width="1"/>
          <ellipse id="Ellipse_13" data-name="Ellipse 13" cx="3.758" cy="3.98" rx="3.758" ry="3.98" transform="translate(511.507 51.686)" fill="#fff" stroke="#82ca9d" stroke-width="1"/>
          <ellipse id="Ellipse_14" data-name="Ellipse 14" cx="3.758" cy="3.98" rx="3.758" ry="3.98" transform="translate(613.809 16.372)" fill="#fff" stroke="#82ca9d" stroke-width="1"/>
        </g>
      </g>
    </g>
  </g>
</svg>
