<svg id="mySvgElemen" xmlns="http://www.w3.org/2000/svg" width="600" height="300"><style><![CDATA[.B{fill:none}.C{stroke:#666}.D{fill:#666}.E{stroke:#8884d8}.F{text-anchor:middle}.G{text-anchor:end}]]></style><path d="M80 247h490m-490 6v-6" class="B C"/><text x="80" y="255" class="D F"><tspan x="80" dy="0.71em">Page A</tspan></text><path d="M161.667 253v-6" class="B C"/><text x="161.667" y="255" class="D F"><tspan x="161.667" dy="0.71em">Page B</tspan></text><path d="M243.333 253v-6" class="B C"/><text x="243.333" y="255" class="D F"><tspan x="243.333" dy="0.71em">Page C</tspan></text><path d="M325 253v-6" class="B C"/><text x="325" y="255" class="D F"><tspan x="325" dy="0.71em">Page D</tspan></text><path d="M406.667 253v-6" class="B C"/><text x="406.667" y="255" class="D F"><tspan x="406.667" dy="0.71em">Page E</tspan></text><path d="M488.333 253v-6" class="B C"/><text x="488.333" y="255" class="D F"><tspan x="488.333" dy="0.71em">Page F</tspan></text><path d="M570 253v-6" class="B C"/><text x="570" y="255" class="D F"><tspan x="570" dy="0.71em">Page G</tspan></text><path d="M80 5v242m-6 0h6" class="B C"/><text x="72" y="247" class="D G"><tspan x="72" dy="0.355em">0</tspan></text><path d="M74 186.5h6" class="B C"/><text x="72" y="186.5" class="D G"><tspan x="72" dy="0.355em">2500</tspan></text><path d="M74 126h6" class="B C"/><text x="72" y="126" class="D G"><tspan x="72" dy="0.355em">5000</tspan></text><path d="M74 65.5h6" class="B C"/><text x="72" y="65.5" class="D G"><tspan x="72" dy="0.355em">7500</tspan></text><path d="M74 5h6" class="B C"/><text x="72" y="9" class="D G"><tspan x="72" dy="0.355em">10000</tspan></text><g class="B"><g stroke-dasharray="3 3" stroke="#ccc"><path d="M80 247h490M80 186.5h490M80 126h490M80 65.5h490"/><path d="M80 5h490M80 5v242M161.667 5v242M243.333 5v242"/><path d="M325 5v242M406.667 5v242M488.333 5v242M570 5v242"/></g><path stroke-dasharray="757.8885498046875px 0px" d="M80 188.92c27.222 12.124 54.444 24.248 81.667 24.248S216.11 9.84 243.333 9.84 297.778 152.426 325 152.426s54.444-21.586 81.667-21.586 54.444 24.2 81.667 24.2S542.778 149 570 142.94" class="E"/></g><g fill="#fff" class="E"><circle r="3" cx="80" cy="188.92"/><circle r="3" cx="161.667" cy="213.168"/><circle r="3" cx="243.333" cy="9.84"/><circle r="3" cx="325" cy="152.426"/><circle r="3" cx="406.667" cy="130.84"/><circle r="3" cx="488.333" cy="155.04"/><circle r="3" cx="570" cy="142.94"/></g><g stroke="#82ca9d"><path stroke-dasharray="511.50079345703125px 0px" d="M80 150.2l81.667 24.2c27.222 8.067 54.444 24.2 81.667 24.2s54.444-18.876 81.667-18.876 54.444 21.538 81.667 21.538 54.444-5.647 81.667-12.1 54.444-16.537 81.667-26.62" class="B"/><g fill="#fff"><circle r="3" cx="80" cy="150.2"/><circle r="3" cx="161.667" cy="174.4"/><circle r="3" cx="243.333" cy="198.6"/><circle r="3" cx="325" cy="179.724"/><circle r="3" cx="406.667" cy="201.262"/><circle r="3" cx="488.333" cy="189.162"/><circle r="3" cx="570" cy="162.542"/></g></g></svg>