<svg xmlns="http://www.w3.org/2000/svg" width="346.401" height="359.722" viewBox="0 0 346.401 359.722">
  <g id="temp0" transform="translate(-224.463 -124.5)">
    <g id="Group_1" data-name="Group 1" transform="translate(224.987 125)">
      <path id="Path_1" data-name="Path 1" d="M524.011,304.334c0-64.07-32.912-123.273-86.337-155.308a167.138,167.138,0,0,0-172.674,0l86.337,155.308Z" transform="translate(-178.634 -125)" fill="#0088fe" stroke="#fff" stroke-width="1"/>
      <path id="Path_2" data-name="Path 2" d="M311.353,135.718c-82.589,49.522-110.886,159.2-63.2,244.975l149.54-89.667Z" transform="translate(-224.987 -111.692)" fill="#00c49f" stroke="#fff" stroke-width="1"/>
      <path id="Path_3" data-name="Path 3" d="M235.718,294.667C283.4,380.441,389.007,409.829,471.6,360.308L385.258,205Z" transform="translate(-212.555 -25.666)" fill="#ffbb28" stroke="#fff" stroke-width="1"/>
      <path id="Path_4" data-name="Path 4" d="M391.337,360.308C444.763,328.273,477.674,269.07,477.674,205H305Z" transform="translate(-132.297 -25.666)" fill="#ff8042" stroke="#fff" stroke-width="1"/>
    </g>
    <text id="_33_" data-name="33%" transform="translate(440.858 224.088)" fill="#fff" font-size="42" font-family="HelveticaNeue, Helvetica Neue"><tspan x="0" y="0">33%</tspan></text>
    <text id="_25_" data-name="25%" transform="translate(334.225 276.292)" fill="#fff" font-size="42" font-family="HelveticaNeue, Helvetica Neue"><tspan x="-88.704" y="0">25%</tspan></text>
    <text id="_25_2" data-name="25%" transform="translate(403.907 397.32)" fill="#fff" font-size="42" font-family="HelveticaNeue, Helvetica Neue"><tspan x="-88.704" y="0">25%</tspan></text>
    <text id="_17_" data-name="17%" transform="translate(472.46 346.576)" fill="#fff" font-size="42" font-family="HelveticaNeue, Helvetica Neue"><tspan x="0" y="0">17%</tspan></text>
  </g>
</svg>
