<svg xmlns="http://www.w3.org/2000/svg" width="623.625" height="583.361" viewBox="0 0 623.625 583.361">
  <g id="Group_5" data-name="Group 5" transform="translate(-271.878 -245.222)">
    <g id="Group_3" data-name="Group 3" transform="translate(273 245)">
      <g id="Group_4" data-name="Group 4">
        <g id="temp0" transform="translate(0 0)">
          <g id="Group_1" data-name="Group 1" transform="translate(101.208 17.607)">
            <path id="Path_1" data-name="Path 1" d="M80,468.688H561.944M80,346.626H561.944M80,224.563H561.944M80,102.5H561.944" transform="translate(-80 19.563)" fill="none" stroke="#ccc" stroke-width="1"/>
            <path id="Path_2" data-name="Path 2" d="M80,20H561.944M80,20V508.251" transform="translate(-80 -20)" fill="none" stroke="#ccc" stroke-width="1"/>
            <path id="Path_3" data-name="Path 3" d="M155,20V508.251M275.486,20V508.251M395.972,20V508.251M516.458,20V508.251" transform="translate(-34.514 -20)" fill="none" stroke="#ccc" stroke-width="1"/>
          </g>
          <path id="Path_4" data-name="Path 4" d="M80,350H561.944M80,358.877V350" transform="translate(21.208 155.858)" fill="none" stroke="#666" stroke-width="1"/>
          <text id="_0cm_" data-name="0cm
" transform="translate(101.685 540.583)" fill="#666" font-size="29" font-family="HelveticaNeue, Helvetica Neue"><tspan x="-28.217" y="0">0cm</tspan><tspan font-size="446"><tspan x="0" y="35"></tspan></tspan></text>
          <path id="Path_5" data-name="Path 5" d="M155,358.877V350" transform="translate(66.694 155.858)" fill="none" stroke="#666" stroke-width="1"/>
          <text id="_45cm_" data-name="45cm
" transform="translate(221.532 538.583)" fill="#666" font-size="29" font-family="HelveticaNeue, Helvetica Neue"><tspan x="-36.279" y="0">45cm</tspan><tspan font-size="446"><tspan x="0" y="35"></tspan></tspan></text>
          <path id="Path_6" data-name="Path 6" d="M230,358.877V350" transform="translate(112.18 155.858)" fill="none" stroke="#666" stroke-width="1"/>
          <text id="_90cm_" data-name="90cm
" transform="translate(342.018 538.583)" fill="#666" font-size="29" font-family="HelveticaNeue, Helvetica Neue"><tspan x="-36.279" y="0">90cm</tspan><tspan font-size="446"><tspan x="0" y="35"></tspan></tspan></text>
          <path id="Path_7" data-name="Path 7" d="M305,358.877V350" transform="translate(157.666 155.858)" fill="none" stroke="#666" stroke-width="1"/>
          <text id="_135cm_" data-name="135cm
" transform="translate(456.866 542.583)" fill="#666" font-size="29" font-family="HelveticaNeue, Helvetica Neue"><tspan x="-44.341" y="0">135cm</tspan><tspan x="0" y="35"></tspan></text>
          <path id="Path_8" data-name="Path 8" d="M380,358.877V350" transform="translate(203.152 155.858)" fill="none" stroke="#666" stroke-width="1"/>
          <text id="_180cm_" data-name="180cm
" transform="translate(577.503 540.583)" fill="#666" font-size="29" font-family="HelveticaNeue, Helvetica Neue"><tspan x="-44.341" y="0">180cm</tspan><tspan x="0" y="35"></tspan></text>
          <path id="Path_9" data-name="Path 9" d="M83.639,20V508.251m-9.639,0h9.639" transform="translate(17.569 -2.393)" fill="none" stroke="#666" stroke-width="1"/>
          <text id="_0kg_" data-name="0kg
" transform="translate(83.343 505.746)" fill="#666" font-size="29" font-family="HelveticaNeue, Helvetica Neue"><tspan x="-47.821" y="0">0kg</tspan><tspan font-size="427"><tspan x="0" y="35"></tspan></tspan></text>
          <path id="Path_10" data-name="Path 10" d="M74,267.5h9.639" transform="translate(17.569 116.295)" fill="none" stroke="#666" stroke-width="1"/>
          <text id="_100kg_" data-name="100kg
" transform="translate(80 383.684)" fill="#666" font-size="29" font-family="HelveticaNeue, Helvetica Neue"><tspan x="-80.069" y="0">100kg</tspan><tspan font-size="323"><tspan x="0" y="35"></tspan></tspan></text>
          <path id="Path_11" data-name="Path 11" d="M74,185h9.639" transform="translate(17.569 76.732)" fill="none" stroke="#666" stroke-width="1"/>
          <text id="_200kg_" data-name="200kg
" transform="translate(80 261.621)" fill="#666" font-size="29" font-family="HelveticaNeue, Helvetica Neue"><tspan x="-80.069" y="0">200kg</tspan><tspan font-size="219"><tspan x="0" y="35"></tspan></tspan></text>
          <path id="Path_12" data-name="Path 12" d="M74,102.5h9.639" transform="translate(17.569 37.169)" fill="none" stroke="#666" stroke-width="1"/>
          <text id="_300kg_" data-name="300kg
" transform="translate(80 139.558)" fill="#666" font-size="29" font-family="HelveticaNeue, Helvetica Neue"><tspan x="-80.069" y="0">300kg</tspan><tspan font-size="114"><tspan x="0" y="35"></tspan></tspan></text>
          <path id="Path_13" data-name="Path 13" d="M74,20h9.639" transform="translate(17.569 -2.393)" fill="none" stroke="#666" stroke-width="1"/>
          <text id="_400kg" data-name="400kg" transform="translate(79.878 28.222)" fill="#666" font-size="29" font-family="HelveticaNeue, Helvetica Neue"><tspan x="-80.069" y="0">400kg</tspan></text>
          <g id="Group_2" data-name="Group 2" transform="translate(361.702 10.928)">
            <path id="Path_14" data-name="Path 14" d="M256.655,187.165a7.276,7.276,0,1,1-7.252-6.679,6.982,6.982,0,0,1,7.252,6.679" transform="translate(-242.152 63.64)" fill="#8884d8"/>
            <path id="Path_15" data-name="Path 15" d="M256.655,187.165a7.276,7.276,0,1,1-7.252-6.679,6.982,6.982,0,0,1,7.252,6.679" transform="translate(-188.602 185.702)" fill="#8884d8"/>
            <path id="Path_16" data-name="Path 16" d="M256.655,187.165a7.276,7.276,0,1,1-7.252-6.679,6.982,6.982,0,0,1,7.252,6.679" transform="translate(-54.729 -58.423)" fill="#8884d8"/>
            <path id="Path_17" data-name="Path 17" d="M256.655,187.165a7.276,7.276,0,1,1-7.252-6.679,6.982,6.982,0,0,1,7.252,6.679" transform="translate(-135.053 2.608)" fill="#8884d8"/>
            <path id="Path_18" data-name="Path 18" d="M256.655,187.165a7.276,7.276,0,1,1-7.252-6.679,6.982,6.982,0,0,1,7.252,6.679" transform="translate(-108.278 -180.486)" fill="#8884d8"/>
            <path id="Path_19" data-name="Path 19" d="M256.655,187.165a7.276,7.276,0,1,1-7.252-6.679,6.982,6.982,0,0,1,7.252,6.679" transform="translate(-215.377 -34.011)" fill="#8884d8"/>
          </g>
        </g>
      </g>
    </g>
  </g>
</svg>
