<svg xmlns="http://www.w3.org/2000/svg" xmlns:xlink="http://www.w3.org/1999/xlink" width="400" height="400"><style><![CDATA[.B{fill:none}.C{stroke:#666}.D{fill:#666}.E{text-anchor:middle}.F{text-anchor:end}]]></style><g stroke="#ccc" class="B"><path d="M80 350h300M80 267.5h300M80 185h300M80 102.5h300"/><path d="M80 20h300M80 20v330"/><path d="M155 20v330m75-330v330m75-330v330m75-330v330"/></g><path d="M80 350h300m-300 6v-6" class="C B"/><text x="80" y="358" class="D E"><tspan x="80" dy="0.71em">0cm</tspan></text><path d="M155 356v-6" class="B C"/><text x="155" y="358" class="D E"><tspan x="155" dy="0.71em">45cm</tspan></text><path d="M230 356v-6" class="B C"/><text x="230" y="358" class="D E"><tspan x="230" dy="0.71em">90cm</tspan></text><path d="M305 356v-6" class="B C"/><text x="305" y="358" class="D E"><tspan x="305" dy="0.71em">135cm</tspan></text><path d="M380 356v-6" class="B C"/><text x="378.227" y="358" class="D E"><tspan x="378.227" dy="0.71em">180cm</tspan></text><path d="M80 20v330m-6 0h6" class="B C"/><text x="72" y="350" class="D F"><tspan x="72" dy="0.355em">0kg</tspan></text><path d="M74 267.5h6" class="B C"/><text x="72" y="267.5" class="D F"><tspan x="72" dy="0.355em">100kg</tspan></text><path d="M74 185h6" class="B C"/><text x="72" y="185" class="D F"><tspan x="72" dy="0.355em">200kg</tspan></text><path d="M74 102.5h6" class="B C"/><text x="72" y="102.5" class="D F"><tspan x="72" dy="0.355em">300kg</tspan></text><path d="M74 20h6" class="B C"/><text x="72" y="20" class="D F"><tspan x="72" dy="0.355em">400kg</tspan></text><g fill="#8884d8"><use xlink:href="#B"/><use xlink:href="#B" x="33.334" y="82.5"/><use xlink:href="#B" x="116.667" y="-82.5"/><use xlink:href="#B" x="66.667" y="-41.25"/><use xlink:href="#B" x="83.334" y="-165"/><use xlink:href="#B" x="16.667" y="-66"/></g><defs ><path id="B" d="M251.18 185c0 2.493-2.02 4.514-4.514 4.514s-4.514-2.02-4.514-4.514 2.02-4.514 4.514-4.514 4.514 2.02 4.514 4.514"/></defs></svg>