<svg xmlns="http://www.w3.org/2000/svg" width="541.742" height="471.701" viewBox="0 0 541.742 471.701">
  <g id="Group_3" data-name="Group 3" transform="translate(-356 -259)">
    <g id="temp0" transform="translate(357 259)">
      <g id="Group_1" data-name="Group 1" transform="translate(143.447 128.752)">
        <path id="Path_1" data-name="Path 1" d="M354.334,263.39a118.184,118.184,0,0,0-59.779-102.53,120.577,120.577,0,0,0-119.556,0l59.778,102.53Z" transform="translate(-115.201 -144.999)" fill="#8884d8" stroke="#fff" stroke-width="1"/>
        <path id="Path_2" data-name="Path 2" d="M204.789,153.038c-57.184,32.692-76.777,105.1-43.762,161.725l103.54-59.195Z" transform="translate(-144.989 -137.177)" fill="#8884d8" stroke="#fff" stroke-width="1"/>
        <path id="Path_3" data-name="Path 3" d="M153.038,264.195c33.014,56.626,106.135,76.028,163.318,43.335L256.578,205Z" transform="translate(-137 -86.609)" fill="#8884d8" stroke="#fff" stroke-width="1"/>
        <path id="Path_4" data-name="Path 4" d="M264.778,307.53A118.183,118.183,0,0,0,324.556,205H205Z" transform="translate(-85.423 -86.609)" fill="#8884d8" stroke="#fff" stroke-width="1"/>
      </g>
      <g id="Group_2" data-name="Group 2" transform="translate(83.689 69.529)">
        <path id="Path_5" data-name="Path 5" d="M324.161,248.792A176.253,176.253,0,0,0,300.134,160l-34.513,19.731a137.086,137.086,0,0,1,18.687,69.061Z" transform="translate(34.508 -71.178)" fill="#82ca9d" stroke="#fff" stroke-width="1"/>
        <path id="Path_6" data-name="Path 6" d="M404.975,203.807c-49.522-84.937-159.2-114.038-244.975-65l19.926,34.175c66.714-38.141,152.02-15.507,190.537,50.556Z" transform="translate(-70.333 -114.985)" fill="#82ca9d" stroke="#fff" stroke-width="1"/>
        <path id="Path_7" data-name="Path 7" d="M192.7,127.058a178.469,178.469,0,0,0-65.64,65L161.57,211.79a138.81,138.81,0,0,1,51.055-50.556Z" transform="translate(-103.031 -103.237)" fill="#82ca9d" stroke="#fff" stroke-width="1"/>
        <path id="Path_8" data-name="Path 8" d="M138.537,160a176.382,176.382,0,0,0-23.044,70.229l39.653,4.124a137.186,137.186,0,0,1,17.9-54.621Z" transform="translate(-114.511 -71.179)" fill="#82ca9d" stroke="#fff" stroke-width="1"/>
        <path id="Path_9" data-name="Path 9" d="M115.982,195.592a175.861,175.861,0,0,0,0,37.125l39.653-4.124a136.78,136.78,0,0,1,0-28.875Z" transform="translate(-115 -36.542)" fill="#82ca9d" stroke="#fff" stroke-width="1"/>
        <path id="Path_10" data-name="Path 10" d="M115.493,216.442a176.029,176.029,0,0,0,5.129,27.4l38.5-10.213a136.915,136.915,0,0,1-3.989-21.31Z" transform="translate(-114.511 -20.264)" fill="#82ca9d" stroke="#fff" stroke-width="1"/>
        <path id="Path_11" data-name="Path 11" d="M118.067,233.332a176.626,176.626,0,0,0,17.916,42.83l34.512-19.732a137.38,137.38,0,0,1-13.934-33.313Z" transform="translate(-111.956 -9.755)" fill="#82ca9d" stroke="#fff" stroke-width="1"/>
        <path id="Path_12" data-name="Path 12" d="M127.058,259.732a178.469,178.469,0,0,0,65.64,65l19.926-34.175A138.81,138.81,0,0,1,161.57,240Z" transform="translate(-103.031 6.675)" fill="#82ca9d" stroke="#fff" stroke-width="1"/>
        <path id="Path_13" data-name="Path 13" d="M160,299.8a180.866,180.866,0,0,0,179.335,0l-19.926-34.175a140.673,140.673,0,0,1-139.482,0Z" transform="translate(-70.333 31.609)" fill="#82ca9d" stroke="#fff" stroke-width="1"/>
        <path id="Path_14" data-name="Path 14" d="M259.926,341.162A177.824,177.824,0,0,0,343.482,233.33l-38.5-10.213A138.308,138.308,0,0,1,240,306.987Z" transform="translate(9.076 -9.755)" fill="#82ca9d" stroke="#fff" stroke-width="1"/>
        <path id="Path_15" data-name="Path 15" d="M311.108,250.963A175.953,175.953,0,0,0,317.22,205H277.367a136.857,136.857,0,0,1-4.753,35.748Z" transform="translate(41.449 -27.386)" fill="#82ca9d" stroke="#fff" stroke-width="1"/>
      </g>
      <path id="Path_16" data-name="Path 16" d="M291.933,186.743l38.5-10.213" transform="translate(144.314 14.437)" fill="none" stroke="#82ca9d" stroke-width="1"/>
      <text id="_100" data-name="100" transform="translate(474.742 190.477)" fill="#82ca9d" font-size="39" font-family="HelveticaNeue, Helvetica Neue"><tspan x="0" y="0">100</tspan></text>
      <path id="Path_17" data-name="Path 17" d="M228.294,136.869l10.314-38.122" transform="translate(81.146 -61.259)" fill="none" stroke="#82ca9d" stroke-width="1"/>
      <text id="_300" data-name="300" transform="translate(319.753 37)" fill="#82ca9d" font-size="39" font-family="HelveticaNeue, Helvetica Neue"><tspan x="0" y="0">300</tspan></text>
      <path id="Path_18" data-name="Path 18" d="M155.4,155.122l-28.179-27.9" transform="translate(-19.183 -33.552)" fill="none" stroke="#82ca9d" stroke-width="1"/>
      <text id="_100-2" data-name="100" transform="translate(107.279 93.176)" fill="#82ca9d" font-size="39" font-family="HelveticaNeue, Helvetica Neue"><tspan x="-65.052" y="0">100</tspan></text>
      <path id="Path_19" data-name="Path 19" d="M138.284,183.2l-37.9-12.194" transform="translate(-45.818 9.063)" fill="none" stroke="#82ca9d" stroke-width="1"/>
      <text id="_80" data-name="80" transform="translate(53.728 179.581)" fill="#82ca9d" font-size="39" font-family="HelveticaNeue, Helvetica Neue"><tspan x="-43.368" y="0">80</tspan></text>
      <path id="Path_20" data-name="Path 20" d="M134.852,205H95" transform="translate(-51.163 42.143)" fill="none" stroke="#82ca9d" stroke-width="1"/>
      <text id="_40" data-name="40" transform="translate(43 246.653)" fill="#82ca9d" font-size="39" font-family="HelveticaNeue, Helvetica Neue"><tspan x="-43.368" y="0">40</tspan></text>
      <path id="Path_21" data-name="Path 21" d="M136.027,221.4l-39.185,7.192" transform="translate(-49.334 58.103)" fill="none" stroke="#82ca9d" stroke-width="1"/>
      <text id="_30" data-name="30" transform="translate(46.67 286.207)" fill="#82ca9d" font-size="39" font-family="HelveticaNeue, Helvetica Neue"><tspan x="-43.368" y="0">30</tspan></text>
      <path id="Path_22" data-name="Path 22" d="M140.191,239.442l-36.819,15.1" transform="translate(-42.853 75.661)" fill="none" stroke="#82ca9d" stroke-width="1"/>
      <text id="_50" data-name="50" transform="translate(59.684 329.713)" fill="#82ca9d" font-size="39" font-family="HelveticaNeue, Helvetica Neue"><tspan x="-43.368" y="0">50</tspan></text>
      <path id="Path_23" data-name="Path 23" d="M155.4,268.64l-28.179,27.9" transform="translate(-19.183 104.075)" fill="none" stroke="#82ca9d" stroke-width="1"/>
      <text id="_100-3" data-name="100" transform="translate(107.279 400.13)" fill="#82ca9d" font-size="39" font-family="HelveticaNeue, Helvetica Neue"><tspan x="-65.052" y="0">100</tspan></text>
      <path id="Path_24" data-name="Path 24" d="M205,295v39.463" transform="translate(58.024 129.728)" fill="none" stroke="#82ca9d" stroke-width="1"/>
      <text id="_200" data-name="200" transform="translate(262.268 463.701)" fill="#82ca9d" font-size="39" font-family="HelveticaNeue, Helvetica Neue"><tspan x="-65.052" y="0">200</tspan></text>
      <path id="Path_25" data-name="Path 25" d="M276.4,259.79l31.617,24.023" transform="translate(128.898 95.463)" fill="none" stroke="#82ca9d" stroke-width="1"/>
      <text id="_150" data-name="150" transform="translate(436.917 378.784)" fill="#82ca9d" font-size="39" font-family="HelveticaNeue, Helvetica Neue"><tspan x="0" y="0">150</tspan></text>
      <path id="Path_26" data-name="Path 26" d="M294.23,216.747l39.513,5.15" transform="translate(146.594 53.575)" fill="none" stroke="#82ca9d" stroke-width="1"/>
      <text id="_50-2" data-name="50" transform="translate(480.335 274.984)" fill="#82ca9d" font-size="39" font-family="HelveticaNeue, Helvetica Neue"><tspan x="0" y="0">50</tspan></text>
    </g>
  </g>
</svg>
