<svg xmlns="http://www.w3.org/2000/svg" width="800" height="400"><style><![CDATA[.B{stroke:#fff}.C{fill:#82ca9d}.D{fill:none}.E{stroke:#82ca9d}.F{alignment-baseline:middle}.G{text-anchor:end}]]></style><g fill="#8884d8" class="B"><path d="M265 205a60 60 0 0 0-90-51.962L205 205z"/><path d="M175 153.038A60 60 0 0 0 153.038 235L205 205z"/><path d="M153.038 235A60 60 0 0 0 235 256.962L205 205z"/><path d="M235 256.962A60 60 0 0 0 265 205h-60z"/></g><g class="C B"><path d="M295 205a90 90 0 0 0-12.058-45l-17.32 10A70 70 0 0 1 275 205z"/><path d="M282.942 160A90 90 0 0 0 160 127.058l10 17.32A70 70 0 0 1 265.622 170z"/><path d="M160 127.058A90 90 0 0 0 127.058 160l17.32 10A70 70 0 0 1 170 144.378z"/><path d="M127.058 160a90 90 0 0 0-11.565 35.592l19.9 2.09A70 70 0 0 1 144.378 170z"/><path d="M115.493 195.592a90 90 0 0 0 0 18.815l19.9-2.09a70 70 0 0 1 0-14.634z"/><path d="M115.493 214.408a90 90 0 0 0 2.574 13.886l19.32-5.176a70 70 0 0 1-2.002-10.8z"/><path d="M118.067 228.294A90 90 0 0 0 127.058 250l17.32-10a70 70 0 0 1-6.993-16.883z"/><path d="M127.058 250A90 90 0 0 0 160 282.942l10-17.32A70 70 0 0 1 144.378 240z"/><path d="M160 282.942a90 90 0 0 0 90 0l-10-17.32a70 70 0 0 1-70 0z"/><path d="M250 282.942a90 90 0 0 0 41.933-54.649l-19.32-5.176A70 70 0 0 1 240 265.622z"/><path d="M291.933 228.294A90 90 0 0 0 295 205h-20a70 70 0 0 1-2.385 18.117z"/></g><path d="M291.933 181.706l19.32-5.176" class="D E"/><text x="311.252" y="176.53" class="C F"><tspan x="311.252" dy="0em">100</tspan></text><path d="M228.294 118.067l5.176-19.32" class="D E"/><text x="233.47" y="98.748" class="C F"><tspan x="233.47" dy="0em">300</tspan></text><path d="M141.36 141.36l-14.142-14.142" class="D E"/><text x="127.218" y="127.218" class="C F G"><tspan x="127.218" dy="0em">100</tspan></text><path d="M119.405 177.188l-19.02-6.18" class="D E"/><text x="100.384" y="171.008" class="C F G"><tspan x="100.384" dy="0em">80</tspan></text><path d="M115 205H95" class="D E"/><text x="95" y="205" class="C F G"><tspan x="95" dy="0em">40</tspan></text><path d="M116.507 221.4l-19.665 3.645" class="D E"/><text x="96.842" y="225.046" class="C F G"><tspan x="96.842" dy="0em">30</tspan></text><path d="M121.85 239.442l-18.478 7.654" class="D E"/><text x="103.373" y="247.095" class="C F G"><tspan x="103.373" dy="0em">50</tspan></text><path d="M141.36 268.64l-14.142 14.142" class="D E"/><text x="127.218" y="282.782" class="C F G"><tspan x="127.218" dy="0em">100</tspan></text><path d="M205 295v20" class="D E"/><text x="205" y="315" class="C F G"><tspan x="205" dy="0em">200</tspan></text><path d="M276.402 259.79l15.867 12.175" class="D E"/><text x="292.269" y="271.964" class="C F"><tspan x="292.269" dy="0em">150</tspan></text><path d="M294.23 216.747l19.83 2.61" class="D E"/><text x="314.059" y="219.358" class="C F"><tspan x="314.059" dy="0em">50</tspan></text></svg>